<?xml version="1.0" standalone="no"?>
<!DOCTYPE svg PUBLIC "-//W3C//DTD SVG 20010904//EN"
 "http://www.w3.org/TR/2001/REC-SVG-20010904/DTD/svg10.dtd">
<svg version="1.0" xmlns="http://www.w3.org/2000/svg"
 width="512.000000pt" height="512.000000pt" viewBox="0 0 512.000000 512.000000"
 preserveAspectRatio="xMidYMid meet">
<metadata>
Created by potrace 1.14, written by Peter Selinger 2001-2017
</metadata>
<g transform="translate(0.000000,512.000000) scale(0.100000,-0.100000)"
fill="#000000" stroke="none">
<path d="M1913 4785 c-125 -34 -348 -126 -666 -276 -104 -49 -192 -89 -197
-89 -4 0 -41 20 -82 45 -154 93 -301 127 -429 101 -157 -33 -276 -121 -341
-253 -31 -63 -33 -74 -32 -168 0 -78 5 -114 23 -165 36 -100 98 -212 178 -318
40 -53 73 -101 73 -107 0 -5 27 -525 61 -1155 44 -841 64 -1150 73 -1165 9
-13 88 -50 220 -103 l206 -82 204 -163 204 -163 288 -42 289 -41 280 -121
c153 -66 287 -120 296 -120 10 0 145 55 300 121 l283 121 286 42 285 41 202
162 202 163 207 82 c132 53 211 90 220 103 9 15 29 326 74 1170 33 633 62
1155 64 1160 2 6 33 49 69 97 83 110 139 211 174 313 22 65 28 98 28 175 0 88
-3 101 -33 163 -88 179 -294 286 -491 256 -94 -14 -206 -56 -289 -109 -34 -22
-67 -40 -72 -40 -5 0 -100 43 -212 96 -226 107 -459 206 -588 250 -71 24 -100
29 -175 28 -91 -1 -344 -34 -465 -59 -60 -13 -75 -12 -200 10 -139 25 -382 55
-435 54 -16 0 -53 -7 -82 -14z m232 -160 c72 -8 193 -26 270 -40 l140 -26 175
30 c96 16 226 35 287 41 98 10 120 9 170 -5 117 -34 531 -214 785 -341 48 -24
97 -44 109 -44 11 0 61 27 109 59 178 119 324 145 452 80 90 -46 158 -142 158
-224 0 -105 -64 -250 -177 -399 -38 -48 -76 -102 -85 -120 -15 -27 -25 -176
-73 -1116 -30 -597 -58 -1108 -61 -1136 l-5 -51 -180 -71 -179 -72 -196 -157
-196 -157 -272 -38 -271 -39 -272 -116 -272 -116 -268 115 -269 116 -274 38
-275 39 -198 158 -197 157 -180 72 -179 71 -5 51 c-3 28 -31 539 -61 1136 -48
941 -58 1089 -73 1116 -9 18 -47 72 -85 120 -113 149 -177 294 -177 399 0 114
108 224 248 254 99 21 264 -33 391 -128 30 -23 65 -41 78 -41 13 0 63 20 111
44 237 119 622 288 757 332 84 28 79 28 240 9z"/>
<path d="M493 4255 c-29 -13 -53 -27 -53 -30 0 -3 18 -33 41 -66 31 -46 45
-59 57 -53 10 4 43 9 74 12 75 6 144 -26 228 -106 l60 -57 57 43 c32 24 59 47
61 51 5 15 -117 129 -176 164 -80 49 -141 67 -225 67 -55 0 -84 -6 -124 -25z"/>
<path d="M4397 4270 c-51 -15 -131 -62 -193 -112 -59 -48 -110 -105 -101 -114
2 -2 30 -24 61 -47 l56 -42 60 57 c82 78 153 111 222 105 29 -2 63 -8 75 -12
18 -6 27 2 62 54 23 33 41 63 41 66 0 3 -24 17 -52 30 -42 20 -68 25 -128 24
-41 0 -88 -5 -103 -9z"/>
<path d="M1775 3986 c-101 -44 -125 -178 -46 -257 112 -113 296 -12 267 146
-18 94 -131 151 -221 111z"/>
<path d="M3215 3986 c-101 -44 -125 -178 -46 -257 112 -113 296 -12 267 146
-18 94 -131 151 -221 111z"/>
<path d="M2420 3664 c-82 -17 -208 -79 -282 -139 -72 -58 -150 -161 -185 -245
-35 -85 -39 -222 -9 -284 59 -118 191 -176 434 -192 l102 -7 0 -43 c0 -32 -4
-44 -17 -48 -10 -3 -101 -19 -203 -36 -101 -17 -186 -33 -188 -35 -3 -3 18
-155 22 -155 0 0 106 18 234 39 l232 40 233 -40 c127 -21 233 -39 233 -39 4 0
25 153 21 156 -2 3 -85 18 -183 35 -247 40 -224 32 -224 83 l0 43 103 7 c243
16 374 74 433 192 15 30 19 59 18 129 0 110 -28 185 -105 287 -153 205 -421
306 -669 252z"/>
<path d="M2320 1040 l0 -80 80 0 80 0 0 80 0 80 -80 0 -80 0 0 -80z"/>
<path d="M2640 1040 l0 -80 80 0 80 0 0 80 0 80 -80 0 -80 0 0 -80z"/>
</g>
</svg>
